inDegrees=yes
name=ik_lifting_orientations
DataType=double
version=3
OpenSimVersion=4.5-2024-01-10-34fd6af
endheader
time	pelvis_tilt	pelvis_list	pelvis_rotation	pelvis_tx	pelvis_ty	pelvis_tz	hip_flexion_r	hip_adduction_r	hip_rotation_r	knee_angle_r	knee_angle_r_beta	ankle_angle_r	subtalar_angle_r	mtp_angle_r	hip_flexion_l	hip_adduction_l	hip_rotation_l	knee_angle_l	knee_angle_l_beta	ankle_angle_l	subtalar_angle_l	mtp_angle_l	lumbar_extension	lumbar_bending	lumbar_rotation	arm_flex_r	arm_add_r	arm_rot_r	elbow_flex_r	pro_sup_r	wrist_flex_r	wrist_dev_r	arm_flex_l	arm_add_l	arm_rot_l	elbow_flex_l	pro_sup_l	wrist_flex_l	wrist_dev_l
1.78	-0.06678165730709291	-0.07878733290825914	-92.75071118673407	0	0.9399999998679526	0	44.13972210754011	-13.26803986799289	0	59.41636784278325	1.037011248432648	-6.627597335900841	0	0	44.13972210754011	-13.26803986799289	0	59.41636784278325	1.037011248432648	-6.627597335900841	0	0	-4.343483206805066	3.528421924710408	3.745531612016335	92.26115500851948	25.56731775339349	42.97559882913271	0.007652936370141038	4.386090729685682	0	0	0	-8.262162931820779	0	85.68654093198195	4.386090729685682	0	0
1.79	-0.1728349620097195	-0.1671694493416969	-92.65045317724895	0	0.9399999998679526	0	44.13984855933091	-13.2663477892952	0	59.41643511084148	1.037012422481746	-6.626502629799666	0	0	44.13984855933091	-13.2663477892952	0	59.41643511084148	1.037012422481746	-6.626502629799666	0	0	-4.519521707967803	3.754432104557429	3.410845003157771	92.03243143784506	25.25938343342268	42.66889179314651	0.007575636327100074	4.385641394962597	0	0	0	-8.262671516759461	0	85.68698277501103	4.385641394962597	0	0
1.8	-0.2760644757292951	-0.2452432936470019	-92.6835849739003	0	0.9399999998679526	0	44.14001146393644	-13.26416711420468	0	59.41652171976428	1.03701393409261	-6.625091848322851	0	0	44.14001146393644	-13.26416711420468	0	59.41652171976428	1.03701393409261	-6.625091848322851	0	0	-4.741561281831813	3.997925606991057	3.322844382001856	92.04012618963795	25.11688220599148	42.35045704540052	0.007672997653676423	4.385062637280346	0	0	0	-8.263326478341257	0	85.68755188310647	4.385062637280346	0	0
1.81	-0.3387036929247018	-0.3092244521619023	-92.80706639755516	0	0.9399999998679526	0	44.14018651090742	-13.26182549366653	0	59.41661480338795	1.037015558708323	-6.623577288493705	0	0	44.14018651090742	-13.26182549366653	0	59.41661480338795	1.037015558708323	-6.623577288493705	0	0	-4.998517870994969	4.194148631499757	3.312639372327571	92.05756892174712	25.11704821272283	42.24811763734979	0.007526899983602759	4.384440666465713	0	0	0	-8.264030405806309	0	85.6881634838801	4.384440666465713	0	0
1.82	-0.4189888556506511	-0.405586395675118	-93.08922479771546	0	0.9399999998679526	0	44.14040246697993	-13.25893903968053	0	59.4167296685995	1.037017563484461	-6.621710857925168	0	0	44.14040246697993	-13.25893903968053	0	59.4167296685995	1.037017563484461	-6.621710857925168	0	0	-5.231145611682822	4.329717236721068	3.578582406572545	91.75693496271187	24.7615709682083	42.31553602088848	0.00719972797229785	4.38367322958058	0	0	0	-8.264899058241514	0	85.68891812543853	4.38367322958058	0	0
1.83	-0.582655252859708	-0.5565808690915677	-93.12521370260244	0	0.9399999998679526	0	44.14063693506809	-13.25580445355701	0	59.41685429318362	1.037019738593782	-6.619684213465435	0	0	44.14063693506809	-13.25580445355701	0	59.41685429318362	1.037019738593782	-6.619684213465435	0	0	-5.533806844628351	4.601969862246311	3.455581428033775	91.47366454891515	24.73065911372975	42.59569881368356	0.006866464420780289	4.382840179721815	0	0	0	-8.265841789044059	0	85.68973728595149	4.382840179721815	0	0
1.84	-0.7625244260175871	-0.7293333950094355	-93.04273926634434	0	0.9399999998679526	0	44.14090346364942	-13.25224176120684	0	59.41699589840066	1.037022210071058	-6.617381214893428	0	0	44.14090346364942	-13.25224176120684	0	59.41699589840066	1.037022210071058	-6.617381214893428	0	0	-5.818570380879	4.890323028925916	3.266821019419086	91.29059399340362	24.54169194606132	42.77537125797831	0.006677723303690858	4.381893314080584	0	0	0	-8.266913207414913	0	85.69066836457894	4.381893314080584	0	0
1.85	-0.9110275549036857	-0.8697855255639253	-92.92598020067759	0	0.9399999998679526	0	44.14117134145109	-13.24866537827554	0	59.41713828104293	1.037024695116963	-6.615070264784737	0	0	44.14117134145109	-13.24866537827554	0	59.41713828104293	1.037024695116963	-6.615070264784737	0	0	-6.085986482223678	5.148632439598517	3.227862259684568	91.24484725903199	24.32030578138724	42.84735326019502	0.006398719616618398	4.380941437342006	0	0	0	-8.267990484673852	0	85.69160437085607	4.380941437342006	0	0
1.86	-1.053095300167068	-1.009391172954707	-92.82879692673917	0	0.9399999998679526	0	44.14145578673315	-13.24486992869877	0	59.4172894512352	1.037027333534549	-6.612618433654453	0	0	44.14145578673315	-13.24486992869877	0	59.4172894512352	1.037027333534549	-6.612618433654453	0	0	-6.356186713749493	5.394126831324534	3.33368874654871	90.92474279602267	23.51668022233923	42.81464494565897	0.0059801485720032	4.379930668554278	0	0	0	-8.269134406745113	0	85.69259828730517	4.379930668554278	0	0
1.87	-1.176321039244486	-1.12263390019244	-92.88253382015601	0	0.9399999998679526	0	44.15814513620482	-13.04654718981658	0	59.42654347006781	1.03718884663222	-6.489256817717461	0	0	44.15814513620482	-13.04654718981658	0	59.42654347006781	1.03718884663222	-6.489256817717461	0	0	-6.634644383707238	5.584689344301815	3.760545946282965	90.04555393474885	21.63523657705688	42.77048330919941	0.005444331777678994	4.319473229901198	0	0	0	-8.338513907768663	0	85.75204822934364	4.319473229901198	0	0
1.88	-1.252594207288859	-1.201598689114329	-92.72564111544581	0	0.9399999998679526	0	44.15837236505755	-13.04365311979144	0	59.42666483401343	1.037190964832664	-6.487418122921804	0	0	44.15837236505755	-13.04365311979144	0	59.42666483401343	1.037190964832664	-6.487418122921804	0	0	-6.781099179632233	5.690844179410245	4.092772775036535	89.44218592402004	20.48786634909922	42.67248001259181	0.005235759907510735	4.318660718218212	0	0	0	-8.33943713095789	0	85.75284719682917	4.318660718218212	0	0
1.89	-1.336233620139686	-1.283661163173209	-92.54624200378018	0	0.9399999998679526	0	44.17004853794137	-12.91499319303738	0	59.433268910326	1.037306227708371	-6.409344694973165	0	0	44.17004853794137	-12.91499319303738	0	59.433268910326	1.037306227708371	-6.409344694973165	0	0	-6.91962370622917	5.816425075890293	4.208881614229117	88.38564911530911	18.60729225970639	42.53734498944477	0.004951549808575151	4.275848620828221	0	0	0	-8.38898233293718	0	85.79494607285825	4.275848620828221	0	0
1.9	-1.39774971148335	-1.342959100932198	-92.69602217461865	0	0.9399999998679526	0	44.17026869513445	-12.91227278808191	0	59.43338677274949	1.037308284795725	-6.407634715069282	0	0	44.17026869513445	-12.91227278808191	0	59.43338677274949	1.037308284795725	-6.407634715069282	0	0	-7.029119332035211	5.858443382901467	4.624807689268602	87.66236072950446	17.48265487884553	42.50558484894267	0.004702691664500045	4.275058234342506	0	0	0	-8.389882661275141	0	85.79572328561963	4.275058234342506	0	0
1.91	-1.433241235414016	-1.362322618338957	-92.92560486609553	0	0.9399999998679526	0	44.18084967615165	-12.79198944707482	0	59.43934404114095	1.037412258743581	-6.334238701705704	0	0	44.18084967615165	-12.79198944707482	0	59.43934404114095	1.037412258743581	-6.334238701705704	0	0	-7.15091580222946	5.901543481304084	5.033483325156567	86.80604173806776	16.13001544965243	42.55553268652164	0.004380884903721221	4.2365422013032	0	0	0	-8.434220246090145	0	85.83359752023408	4.2365422013032	0	0
1.92	-1.480285776965732	-1.409615425067735	-93.04516065582706	0	0.9399999998679526	0	44.1920702822278	-12.67518837201126	0	59.44572864223407	1.037523691054083	-6.264819412242021	0	0	44.1920702822278	-12.67518837201126	0	59.44572864223407	1.037523691054083	-6.264819412242021	0	0	-7.19649802410228	5.903837362957924	5.254451648300885	85.79332643920945	14.41068732871076	42.34800777285262	0.004109949599458732	4.195080858803665	0	0	0	-8.482440112470448	0	85.87436828919871	4.195080858803665	0	0
1.93	-1.492035000794278	-1.416322713072402	-93.06431498721385	0	0.9399999998679526	0	44.20180336699767	-12.57084452642575	0	59.45122864478173	1.037619684207407	-6.202468086763558	0	0	44.20180336699767	-12.57084452642575	0	59.45122864478173	1.037619684207407	-6.202468086763558	0	0	-7.261004664547313	5.961586664859613	5.263681537502766	85.09666815220234	13.1617548981976	41.9792705512438	0.004005470257898643	4.159363124139652	0	0	0	-8.523768752590518	0	85.90949099586287	4.159363124139652	0	0
1.94	-1.531696237050571	-1.458678988592524	-92.99878476876729	0	0.9399999998679526	0	44.20189157155955	-12.56984917239089	0	59.45127630628063	1.03762051605749	-6.201862681392074	0	0	44.20189157155955	-12.56984917239089	0	59.45127630628063	1.03762051605749	-6.201862681392074	0	0	-7.280891716584373	6.035425591833103	5.002605420054292	84.87066894050254	12.51720577571384	41.47920467539379	0.004158954386100933	4.159042571239424	0	0	0	-8.524136744509818	0	85.90980620787728	4.159042571239424	0	0
1.95	-1.463901163462888	-1.386632205026073	-93.10497645721817	0	0.9399999998679526	0	44.20214365356075	-12.56699553794481	0	59.45141212958372	1.03762288662133	-6.200126173013304	0	0	44.20214365356075	-12.56699553794481	0	59.45141212958372	1.03762288662133	-6.200126173013304	0	0	-7.085734204287903	5.862073379587914	4.887947469715795	85.08472237419809	12.4710881116837	40.5481165044056	0.004495732954295501	4.158127416545009	0	0	0	-8.525186379951229	0	85.91070611438505	4.158127416545009	0	0
1.96	-1.454915862862266	-1.38299430218111	-92.89942588849863	0	0.9399999998679526	0	44.20246486885359	-12.56336485189629	0	59.45158530263895	1.037625909061319	-6.197917884643506	0	0	44.20246486885359	-12.56336485189629	0	59.45158530263895	1.037625909061319	-6.197917884643506	0	0	-6.937360641976991	5.794723903472653	4.447112122041596	85.48065460218547	12.83491896912939	39.894991284265	0.004812537868882236	4.156960931800254	0	0	0	-8.52652458648951	0	85.91185316345937	4.156960931800254	0	0
1.97	-1.487906794333294	-1.417929610632658	-92.55887207249053	0	0.9399999998679526	0	44.20268582960384	-12.56086807441777	0	59.45170437461676	1.037627987259379	-6.196399671413375	0	0	44.20268582960384	-12.56086807441777	0	59.45170437461676	1.037627987259379	-6.196399671413375	0	0	-6.955431993458747	5.915610530975027	3.777643679810658	85.66572389380038	13.06806735577887	39.6079212966087	0.005025780684185206	4.156158589800493	0	0	0	-8.527444947748386	0	85.9126421370224	4.156158589800493	0	0
1.98	-1.554200375003614	-1.505283629258424	-92.12115001076948	0	0.9399999998679526	0	44.20294309558873	-12.55800659123205	0	59.45184474552436	1.03763043719389	-6.194664903374329	0	0	44.20294309558873	-12.55800659123205	0	59.45184474552436	1.03763043719389	-6.194664903374329	0	0	-6.933625326934759	6.034875592224867	2.816320138546223	85.80014417058273	13.98900527459	39.81135043580863	0.005437947557160597	4.155219930354818	0	0	0	-8.528526086778214	0	85.9135651584418	4.155219930354818	0	0
1.99	-1.604391949975171	-1.56537901506006	-91.78277368715054	0	0.9399999998679526	0	44.20313146483132	-12.55588077536739	0	59.45194623721845	1.037632208558116	-6.193373034003468	0	0	44.20313146483132	-12.55588077536739	0	59.45194623721845	1.037632208558116	-6.193373034003468	0	0	-6.905646722001265	6.11515938117336	1.964043964815697	85.71362546425496	14.32430934569165	39.82499198554548	0.005860770453811616	4.15453588467177	0	0	0	-8.529310757764829	0	85.91423780674192	4.15453588467177	0	0
2	-1.628541632028922	-1.590190584107714	-91.76381190156378	0	0.9399999998679526	0	44.20339990953229	-12.55286913375165	0	59.45209151782682	1.037634744183071	-6.191545032625128	0	0	44.20339990953229	-12.55286913375165	0	59.45209151782682	1.037634744183071	-6.191545032625128	0	0	-6.974532563419959	6.239592062378991	1.543070827485875	86.35343202226517	15.34186073900108	39.88272010792912	0.00681013679119478	4.153559349827176	0	0	0	-8.530432608044944	0	85.91519807147988	4.153559349827176	0	0
2.01	-1.689948156507623	-1.642745371495192	-91.68953906353293	0	0.9399999998679526	0	44.20371214591677	-12.54936038078141	0	59.45226016058011	1.037637687554376	-6.189415079002797	0	0	44.20371214591677	-12.54936038078141	0	59.45226016058011	1.037637687554376	-6.189415079002797	0	0	-7.004448969260145	6.318698344414261	1.226104573054373	86.9351825266716	15.93770382629762	39.69505272850054	0.007915536166949301	4.152424287951884	0	0	0	-8.531735778942497	0	85.91631422174041	4.152424287951884	0	0
